<?xml version="1.0" encoding="UTF-8"?>
<svg id="Livello_2" data-name="Livello 2" xmlns="http://www.w3.org/2000/svg" viewBox="0 0 735.6 200.51">
  <defs>
    <style>
      .cls-1 {
        fill: #fff;
      }
    </style>
  </defs>
  <g id="Livello_1-2" data-name="Livello 1">
    <g>
      <path class="cls-1" d="M148.74,198.76c-.01.11-.04.29-.07.53-.04.24-.07.52-.1.84h-.78c-3.21,0-6.06-.43-8.54-1.29-2.49-.86-4.53-2.11-6.13-3.75-1.11-1.13-1.99-2.49-2.64-4.08-.65-1.58-.98-3.39-.98-5.42,0-1.82.32-3.49.96-5,.64-1.51,1.47-2.82,2.51-3.93,1.51-1.62,3.54-2.91,6.08-3.87,2.54-.95,5.26-1.43,8.14-1.43h.9c0,.14,0,.35.02.64s.03.53.04.73h-.67c-2.21,0-4.21.26-5.98.77-1.77.51-3.32,1.16-4.63,1.94-1.7,1.02-3.07,2.4-4.12,4.13s-1.58,3.76-1.58,6.08.5,4.47,1.5,6.17c1,1.7,2.26,3.04,3.77,4,1.74,1.12,3.54,1.9,5.42,2.32,1.88.43,3.85.64,5.93.64h.38c.17,0,.35,0,.55-.02Z"/>
      <path class="cls-1" d="M180.76,199.55l-1.54.68c-.48-1.04-1.09-2.41-1.84-4.13-.75-1.72-1.78-4.05-3.11-6.99h-13.74c-1.24,2.76-2.3,5.15-3.19,7.18-.89,2.02-1.47,3.32-1.73,3.9l-1.44-.64c.46-1.01,2.21-4.85,5.24-11.51s5.54-12.21,7.51-16.64h1.22c1.36,3.11,3.62,8.19,6.8,15.24s5.11,11.35,5.81,12.91ZM173.67,187.77c-.89-2.05-1.93-4.4-3.12-7.06-1.19-2.66-2.23-4.99-3.14-6.99h-.04c-.99,2.22-2.08,4.66-3.26,7.32-1.18,2.66-2.17,4.9-2.98,6.72v.02s12.55,0,12.55,0v-.02Z"/>
      <path class="cls-1" d="M205.2,173.02c-.22,0-1.06,0-2.5-.01-1.44,0-3.21-.01-5.32-.01-.95,0-2.06,0-3.32.01-1.26,0-2.17.01-2.73.01,0,1.58,0,3.68-.02,6.29-.01,2.62-.02,4.62-.02,6.02.15,0,.82,0,2,.01s2.09.01,2.75.01c2.09,0,4.05,0,5.89-.01,1.84,0,2.87-.01,3.08-.01v1.37c-.25,0-1.43,0-3.52-.01-2.09,0-3.98,0-5.64,0-.52,0-1.37,0-2.54,0-1.18,0-1.85.01-2.02.01,0,2.48,0,4.94.02,7.38s.02,4.33.02,5.67h-1.68c0-.84,0-2.34.02-4.49.01-2.15.02-5.24.02-9.28,0-1.58,0-3.67-.02-6.25s-.02-5.27-.02-8.06c.94,0,2.06,0,3.37,0,1.31,0,2.71.01,4.19.01,2.23,0,4.06,0,5.51-.01,1.44,0,2.27,0,2.48,0v1.34Z"/>
      <path class="cls-1" d="M233.04,199.71c-.71,0-2.12,0-4.2-.01s-3.47-.01-4.16-.01c-1.34,0-2.79,0-4.33.01s-2.69.01-3.45.01c0-.52,0-1.81.02-3.87s.02-5.36.02-9.9c0-1.78,0-3.93-.02-6.45-.01-2.52-.02-5.13-.02-7.82.94,0,2.09,0,3.45,0,1.36,0,2.73.01,4.12.01,1.09,0,2.58,0,4.46-.01,1.88,0,3.16,0,3.85,0v1.37c-.73,0-2.14,0-4.24,0-2.09,0-3.49-.01-4.19-.01h-5.76c0,1.37,0,3.05-.02,5.04s-.02,4.14-.02,6.45c.83,0,1.87,0,3.12.01,1.25,0,2.13,0,2.62,0,1.19,0,2.73,0,4.61,0s3.18-.01,3.88-.01v1.37c-.63,0-1.94,0-3.94-.01-2,0-3.51-.01-4.55-.01-.46,0-1.33,0-2.61.01-1.28,0-2.32.01-3.13.01,0,1.09,0,3.18.02,6.26.01,3.08.02,5.16.02,6.22h7.04c1.11,0,2.46,0,4.06,0,1.6,0,2.72-.01,3.36-.01v1.37ZM230.06,168.6l-.48.97-9.94-3.89.55-1.2,9.88,4.12Z"/>
      <path class="cls-1" d="M276.08,198.76c-.01.11-.04.29-.07.53s-.07.52-.09.84h-.78c-3.21,0-6.06-.43-8.54-1.29-2.49-.86-4.53-2.11-6.13-3.75-1.11-1.13-1.99-2.49-2.64-4.08s-.98-3.39-.98-5.42c0-1.82.32-3.49.96-5,.64-1.51,1.47-2.82,2.51-3.93,1.51-1.62,3.54-2.91,6.08-3.87,2.54-.95,5.26-1.43,8.14-1.43h.9c0,.14,0,.35.02.64.01.29.03.53.04.73h-.67c-2.21,0-4.21.26-5.98.77-1.77.51-3.32,1.16-4.63,1.94-1.7,1.02-3.07,2.4-4.12,4.13s-1.58,3.76-1.58,6.08.5,4.47,1.5,6.17c1,1.7,2.26,3.04,3.77,4,1.74,1.12,3.54,1.9,5.42,2.32,1.88.43,3.85.64,5.93.64h.38c.17,0,.35,0,.55-.02Z"/>
      <path class="cls-1" d="M309.51,185.69c0,2.23-.33,4.26-.98,6.09-.65,1.84-1.64,3.46-2.95,4.88-1.21,1.29-2.53,2.25-3.96,2.89-1.44.64-3.07.96-4.89.96s-3.49-.33-5.01-1c-1.52-.67-2.9-1.7-4.13-3.1-1.23-1.4-2.15-3-2.76-4.79-.61-1.79-.91-3.75-.91-5.88,0-2.35.34-4.46,1.03-6.32s1.77-3.55,3.26-5.1c1.09-1.13,2.38-2,3.85-2.58,1.47-.59,3.03-.88,4.69-.88,1.75,0,3.35.3,4.8.91,1.45.61,2.8,1.59,4.04,2.93,1.3,1.4,2.28,3,2.94,4.81.66,1.81.99,3.87.99,6.18ZM307.83,185.48c0-2.09-.35-4.03-1.05-5.82-.7-1.79-1.68-3.31-2.92-4.56-1.05-1.05-2.19-1.8-3.4-2.26-1.22-.46-2.47-.68-3.74-.68-1.37,0-2.64.22-3.79.67-1.16.45-2.25,1.17-3.27,2.17-1.29,1.26-2.29,2.81-3,4.64-.71,1.84-1.06,3.86-1.06,6.07s.32,4.11.97,5.85c.64,1.75,1.62,3.29,2.92,4.63.94.98,2.03,1.73,3.28,2.24,1.25.51,2.56.77,3.95.77,1.3,0,2.58-.24,3.82-.71,1.24-.48,2.33-1.2,3.27-2.16,1.36-1.42,2.37-2.95,3.04-4.61s1-3.74,1-6.23Z"/>
      <path class="cls-1" d="M337.67,198.76c-.01.11-.04.29-.07.53-.04.24-.07.52-.1.84h-.78c-3.21,0-6.06-.43-8.54-1.29-2.49-.86-4.53-2.11-6.13-3.75-1.11-1.13-1.99-2.49-2.64-4.08-.65-1.58-.98-3.39-.98-5.42,0-1.82.32-3.49.96-5,.64-1.51,1.47-2.82,2.51-3.93,1.51-1.62,3.54-2.91,6.08-3.87,2.54-.95,5.26-1.43,8.14-1.43h.9c0,.14,0,.35.02.64s.03.53.04.73h-.67c-2.21,0-4.21.26-5.98.77-1.77.51-3.32,1.16-4.63,1.94-1.7,1.02-3.07,2.4-4.12,4.13s-1.58,3.76-1.58,6.08.5,4.47,1.5,6.17c1,1.7,2.26,3.04,3.77,4,1.74,1.12,3.54,1.9,5.42,2.32,1.88.43,3.85.64,5.93.64h.38c.17,0,.35,0,.55-.02Z"/>
      <path class="cls-1" d="M349.48,199.75h-1.68c0-.84,0-2.69.02-5.55s.02-6.3.02-10.32c0-1.64,0-3.54-.02-5.7-.01-2.16-.02-4.35-.02-6.58h1.68c0,2.14,0,4.57-.02,7.27s-.02,5.04-.02,7c0,4.04,0,7.15.02,9.33s.02,3.7.02,4.54ZM366.91,198.9l-1.15,1.23c-3.18-3.24-6.21-6.27-9.1-9.09-2.89-2.82-4.54-4.44-4.96-4.84v-.08c.8-.88,2.53-2.8,5.19-5.76s5.34-5.98,8.03-9.06l1.16,1.1c-2.23,2.34-4.69,5.01-7.39,8.02-2.7,3.01-4.36,4.85-4.98,5.52l.02.04c.14.13,1.54,1.5,4.19,4.14,2.65,2.63,5.65,5.56,8.99,8.78Z"/>
      <path class="cls-1" d="M394.24,173.08c-.21,0-1.22,0-3.02,0-1.8,0-4.27-.01-7.41-.01,0,2.87,0,5.3-.02,7.28s-.02,4.26-.02,6.82,0,4.97.02,7.51.02,4.24.02,5.08h-1.68c0-.84,0-2.56.02-5.15.01-2.59.02-5.13.02-7.61s0-4.62-.02-6.56-.02-4.39-.02-7.38c-2.79,0-5.18,0-7.17.01-1.99,0-3.07,0-3.24,0v-1.41c1.35,0,2.98,0,4.92,0,1.93,0,3.99.01,6.18.01,3.18,0,5.83,0,7.96-.01,2.12,0,3.27,0,3.46,0v1.41Z"/>
      <path class="cls-1" d="M425.09,199.55l-1.54.68c-.48-1.04-1.09-2.41-1.84-4.13-.75-1.72-1.78-4.05-3.11-6.99h-13.74c-1.24,2.76-2.3,5.15-3.19,7.18-.89,2.02-1.46,3.32-1.73,3.9l-1.44-.64c.46-1.01,2.21-4.85,5.24-11.51,3.03-6.67,5.54-12.21,7.51-16.64h1.22c1.36,3.11,3.63,8.19,6.8,15.24s5.11,11.35,5.81,12.91ZM418,187.77c-.89-2.05-1.93-4.4-3.12-7.06-1.19-2.66-2.23-4.99-3.14-6.99h-.04c-.99,2.22-2.08,4.66-3.26,7.32-1.18,2.66-2.17,4.9-2.98,6.72v.02s12.55,0,12.55,0v-.02Z"/>
      <path class="cls-1" d="M435.72,199.75h-1.68c0-.84,0-2.34.02-4.5.01-2.16.02-5.25.02-9.29,0-1.6,0-3.69-.02-6.28-.01-2.59-.02-5.28-.02-8.07h1.68c0,2,0,4.33-.02,6.99s-.02,4.82-.02,6.5c0,4.26,0,7.55.02,9.89s.02,3.92.02,4.76Z"/>
      <path class="cls-1" d="M465.34,199.71c-.15,0-.98,0-2.48-.01-1.5,0-3.42-.01-5.76-.01-1.53,0-2.97,0-4.33.01s-2.52.01-3.49.01c0-2.41,0-4.85.02-7.32s.02-4.9.02-7.28c0-3.98,0-7.01-.02-9.1s-.02-3.55-.02-4.39h1.68c0,1.81,0,3.9-.02,6.26-.01,2.37-.02,4.31-.02,5.82,0,3.68,0,7.01.02,9.96s.02,4.5.02,4.64c.53,0,1.42,0,2.68.01,1.25,0,2.18,0,2.78,0,2.35,0,4.4,0,6.14,0,1.74,0,2.66-.01,2.77-.01v1.41Z"/>
      <path class="cls-1" d="M505.5,173.02c-.22,0-1.06,0-2.5-.01-1.44,0-3.21-.01-5.32-.01-.95,0-2.06,0-3.32.01-1.26,0-2.17.01-2.73.01,0,1.58,0,3.68-.02,6.29-.01,2.62-.02,4.62-.02,6.02.15,0,.82,0,2,.01,1.18,0,2.09.01,2.75.01,2.09,0,4.05,0,5.9-.01s2.87-.01,3.08-.01v1.37c-.25,0-1.43,0-3.52-.01-2.1,0-3.98,0-5.64,0-.52,0-1.37,0-2.54,0-1.18,0-1.85.01-2.02.01,0,2.48,0,4.94.02,7.38s.02,4.33.02,5.67h-1.68c0-.84,0-2.34.02-4.49.01-2.15.02-5.24.02-9.28,0-1.58,0-3.67-.02-6.25-.01-2.58-.02-5.27-.02-8.06.94,0,2.06,0,3.37,0,1.31,0,2.71.01,4.19.01,2.23,0,4.06,0,5.51-.01,1.44,0,2.27,0,2.48,0v1.34Z"/>
      <path class="cls-1" d="M540.21,185.69c0,2.23-.33,4.26-.98,6.09-.65,1.84-1.64,3.46-2.95,4.88-1.21,1.29-2.53,2.25-3.96,2.89-1.44.64-3.07.96-4.89.96s-3.49-.33-5.01-1c-1.52-.67-2.9-1.7-4.13-3.1s-2.15-3-2.76-4.79c-.61-1.79-.91-3.75-.91-5.88,0-2.35.34-4.46,1.03-6.32s1.77-3.55,3.26-5.1c1.09-1.13,2.38-2,3.85-2.58,1.47-.59,3.03-.88,4.69-.88,1.75,0,3.35.3,4.8.91,1.45.61,2.8,1.59,4.04,2.93,1.3,1.4,2.28,3,2.94,4.81s.99,3.87.99,6.18ZM538.53,185.48c0-2.09-.35-4.03-1.05-5.82-.7-1.79-1.67-3.31-2.92-4.56-1.05-1.05-2.19-1.8-3.41-2.26-1.22-.46-2.47-.68-3.74-.68-1.37,0-2.64.22-3.79.67-1.16.45-2.25,1.17-3.27,2.17-1.29,1.26-2.29,2.81-3,4.64-.71,1.84-1.06,3.86-1.06,6.07s.32,4.11.97,5.85c.64,1.75,1.62,3.29,2.92,4.63.94.98,2.03,1.73,3.28,2.24s2.56.77,3.95.77c1.3,0,2.57-.24,3.81-.71,1.24-.48,2.33-1.2,3.27-2.16,1.36-1.42,2.37-2.95,3.04-4.61.67-1.66,1-3.74,1-6.23Z"/>
      <path class="cls-1" d="M574.74,185.69c0,2.23-.33,4.26-.98,6.09-.65,1.84-1.64,3.46-2.95,4.88-1.21,1.29-2.53,2.25-3.96,2.89-1.44.64-3.07.96-4.89.96s-3.49-.33-5.01-1c-1.52-.67-2.9-1.7-4.13-3.1-1.23-1.4-2.15-3-2.76-4.79-.61-1.79-.91-3.75-.91-5.88,0-2.35.34-4.46,1.03-6.32s1.77-3.55,3.26-5.1c1.09-1.13,2.38-2,3.85-2.58,1.47-.59,3.03-.88,4.69-.88,1.75,0,3.35.3,4.8.91,1.45.61,2.8,1.59,4.04,2.93,1.3,1.4,2.28,3,2.94,4.81.66,1.81.99,3.87.99,6.18ZM573.06,185.48c0-2.09-.35-4.03-1.05-5.82-.7-1.79-1.68-3.31-2.92-4.56-1.05-1.05-2.19-1.8-3.4-2.26-1.22-.46-2.47-.68-3.74-.68-1.37,0-2.64.22-3.79.67-1.16.45-2.25,1.17-3.27,2.17-1.29,1.26-2.29,2.81-3,4.64-.71,1.84-1.06,3.86-1.06,6.07s.32,4.11.97,5.85c.64,1.75,1.62,3.29,2.92,4.63.94.98,2.03,1.73,3.28,2.24,1.25.51,2.56.77,3.95.77,1.3,0,2.58-.24,3.82-.71,1.24-.48,2.33-1.2,3.27-2.16,1.36-1.42,2.37-2.95,3.04-4.61s1-3.74,1-6.23Z"/>
      <path class="cls-1" d="M607.73,185.84c0,2.33-.54,4.43-1.62,6.32-1.08,1.88-2.58,3.45-4.5,4.7-1.67,1.04-3.42,1.8-5.26,2.28-1.84.48-3.99.72-6.44.72-.59,0-1.3,0-2.13-.02-.83-.01-1.44-.03-1.82-.04,0-.64,0-2.11.02-4.39.01-2.28.02-5.51.02-9.69,0-2.65,0-5.31-.02-7.99-.01-2.68-.02-4.71-.02-6.12.34-.01.81-.02,1.42-.02h1.75c2.73,0,5.18.27,7.33.81,2.16.54,4.02,1.33,5.59,2.39,1.91,1.26,3.33,2.83,4.27,4.7.94,1.87,1.41,3.99,1.41,6.36ZM606.05,185.84c0-2.13-.42-4.04-1.27-5.74-.85-1.7-2.2-3.14-4.07-4.33-1.53-.97-3.24-1.68-5.13-2.14-1.89-.46-4.06-.69-6.49-.69h-1.45c0,1.13,0,2.7-.02,4.71-.01,2-.02,4.06-.02,6.16,0,3.62,0,6.54,0,8.76,0,2.23.02,4.21.03,5.95h1.45c2.27,0,4.34-.19,6.21-.58,1.87-.38,3.53-1.03,4.97-1.92,1.93-1.21,3.38-2.67,4.34-4.4.96-1.73,1.44-3.65,1.44-5.77Z"/>
    </g>
    <g>
      <polygon class="cls-1" points="1.11 4.09 0 4.09 0 144.62 8.88 144.62 8.88 144.09 86.17 144.09 86.17 135.21 8.88 135.21 8.88 88.4 86.17 88.4 86.17 79.53 8.88 79.53 8.88 68.11 86.17 68.11 86.17 59.24 8.88 59.24 8.88 12.43 86.17 12.43 86.17 3.55 1.11 3.55 1.11 4.09"/>
      <rect class="cls-1" x="269.23" y="4.09" width="8.88" height="140.53"/>
      <polygon class="cls-1" points="526.88 50.84 506.37 0 445.01 144.09 454.66 144.09 506.16 23.19 521.97 62.39 487.18 144.09 496.86 144.13 526.54 73.74 554.91 144.09 564.5 144.09 531.44 62.12 547.9 23.08 596.82 144.09 606.4 144.09 548.4 .31 526.88 50.84"/>
      <polygon class="cls-1" points="735.6 144.13 677.84 .31 616.61 144.09 626.24 144.13 677.5 23.78 697.9 74.37 674.32 74.36 680.59 83.33 701.51 83.33 726.03 144.13 735.6 144.13"/>
      <path class="cls-1" d="M312.38,73.82c0,38.81,31.46,70.27,70.27,70.27,18.82,0,35.9-7.41,48.51-19.46v-50.25h-7.14l-61.91-.02,39.83,56.92c3.24-1.09,6.36-2.43,9.32-4.02l-27.5-43.83,38.52-.06v36.29c-10.63,9.2-24.48,14.76-39.63,14.76-33.47,0-60.61-27.13-60.61-60.61s27.13-60.61,60.61-60.61c19.84,0,37.45,9.54,48.51,24.27v-14.48c-12.61-12.05-29.69-19.46-48.51-19.46-38.81,0-70.27,31.46-70.27,70.27Z"/>
      <path class="cls-1" d="M215.49,111.98L122.66,4.09v140.53h8.75v-.52l43.89-62.26,49.06,58.65V3.55h-8.88v108.43ZM131.41,128.7V29.36l38,45.43-38,53.9Z"/>
    </g>
  </g>
</svg>