<?xml version="1.0" encoding="UTF-8"?>
<svg id="Livello_2" data-name="Livello 2" xmlns="http://www.w3.org/2000/svg" viewBox="0 0 735.6 144.62">
  <defs>
    <style>
      .cls-1 {
        fill: #fff;
      }
    </style>
  </defs>
  <g id="Livello_1-2" data-name="Livello 1">
    <g>
      <polygon class="cls-1" points="1.11 4.09 0 4.09 0 144.62 8.88 144.62 8.88 144.09 86.17 144.09 86.17 135.21 8.88 135.21 8.88 88.4 86.17 88.4 86.17 79.53 8.88 79.53 8.88 68.11 86.17 68.11 86.17 59.24 8.88 59.24 8.88 12.43 86.17 12.43 86.17 3.55 1.11 3.55 1.11 4.09"/>
      <rect class="cls-1" x="269.23" y="4.09" width="8.88" height="140.53"/>
      <polygon class="cls-1" points="526.88 50.84 506.37 0 445.01 144.09 454.66 144.09 506.16 23.19 521.97 62.39 487.18 144.09 496.86 144.13 526.54 73.74 554.91 144.09 564.5 144.09 531.44 62.12 547.9 23.08 596.82 144.09 606.4 144.09 548.4 .31 526.88 50.84"/>
      <polygon class="cls-1" points="735.6 144.13 677.84 .31 616.61 144.09 626.24 144.13 677.5 23.78 697.9 74.37 674.32 74.36 680.59 83.33 701.51 83.33 726.03 144.13 735.6 144.13"/>
      <path class="cls-1" d="M312.38,73.82c0,38.81,31.46,70.27,70.27,70.27,18.82,0,35.9-7.41,48.51-19.46v-50.25h-7.14l-61.91-.02,39.83,56.92c3.24-1.09,6.36-2.43,9.32-4.02l-27.5-43.83,38.52-.06v36.29c-10.63,9.2-24.48,14.76-39.63,14.76-33.47,0-60.61-27.13-60.61-60.61s27.13-60.61,60.61-60.61c19.84,0,37.45,9.54,48.51,24.27v-14.48c-12.61-12.05-29.69-19.46-48.51-19.46-38.81,0-70.27,31.46-70.27,70.27Z"/>
      <path class="cls-1" d="M215.49,111.98L122.66,4.09v140.53h8.75v-.52l43.89-62.26,49.06,58.65V3.55h-8.88v108.43ZM131.41,128.7V29.36l38,45.43-38,53.9Z"/>
    </g>
  </g>
</svg>