<?xml version="1.0" encoding="UTF-8"?>
<svg id="Livello_2" data-name="Livello 2" xmlns="http://www.w3.org/2000/svg" viewBox="0 0 273.07 375.48">
  <defs>
    <style>
      .cls-1 {
        fill: #fff;
      }
    </style>
  </defs>
  <g id="Livello_1-2" data-name="Livello 1">
    <path class="cls-1" d="M264.54,0H8.54C3.16,0-.91,4.93.18,10.27c.46,2.24,46.46,225.02,50.71,340.55.51,13.82,11.74,24.66,25.57,24.66h120.17c13.82,0,25.05-10.84,25.57-24.66,4.27-115.52,50.24-338.31,50.71-340.55,1.11-5.34-2.97-10.27-8.35-10.27h0ZM196.63,358.4h-120.17c-4.61,0-8.35-3.62-8.52-8.23-.41-11.2-1.26-23.5-2.37-36.37,8.7,6.49,19.39,10.46,31.06,10.46h79.8c11.67,0,22.36-3.98,31.08-10.46-1.11,12.87-1.96,25.17-2.37,36.37-.19,4.61-3.93,8.23-8.52,8.23h0ZM211.34,275.63c-1.81,18.01-16.81,31.57-34.9,31.57h-79.8c-18.09,0-33.09-13.57-34.9-31.57-6.23-62.41-28.81-189.01-42.75-258.56h235.11c-32.46,161.84-43.32,264.19-42.75,258.56Z"/>
  </g>
</svg>