<?xml version="1.0" encoding="UTF-8"?>
<svg id="Livello_2" data-name="Livello 2" xmlns="http://www.w3.org/2000/svg" viewBox="0 0 126.56 220.72">
  <defs>
    <style>
      .cls-1 {
        fill: #fff;
      }
    </style>
  </defs>
  <g id="Livello_1-2" data-name="Livello 1">
    <path class="cls-1" d="M124.21,10L94.73.18c-1.81-.6-3.76.38-4.37,2.19-.03.1-.06.21-.09.32l-6.3,27.72c-.42,1.86.74,3.71,2.6,4.14.25.05.51.08.76.08,1.61,0,3.01-1.12,3.36-2.69l5.45-24.01,25.86,8.62c1.81.6,3.76-.37,4.36-2.18.6-1.81-.37-3.76-2.18-4.36h0Z"/>
    <path class="cls-1" d="M99.59,38.23H3.45C1.54,38.24,0,39.78,0,41.69c0,.34.05.68.15,1.01.22.71,21.77,71.03,23.17,100.76.83,17.36.22,34.76-1.83,52.03-4.03,3.72-5.9,9.23-4.96,14.63,2,7.33,12.78,10.6,35,10.6s32.98-3.27,34.98-10.6c.94-5.4-.93-10.91-4.97-14.63-2.05-17.26-2.67-34.66-1.84-52.03,1.38-29.73,22.95-100.05,23.17-100.76.56-1.82-.47-3.75-2.29-4.31-.33-.1-.67-.15-1.01-.15h.01ZM72.83,143.13c-.84,17.26-.28,34.55,1.68,51.72-7.59,1.83-15.4,2.6-23.2,2.3-5.35.06-10.7-.22-16.02-.83-1.89-.24-3.62,1.09-3.86,2.98-.24,1.89,1.09,3.62,2.98,3.86h0c5.61.66,11.26.95,16.92.89,8.78.37,17.57-.59,26.06-2.87,1.88,1.87,2.79,4.49,2.48,7.12-.25.92-2.8,5.52-28.33,5.52s-28.09-4.6-28.34-5.52c-1.11-4.07,3.79-8.54,3.83-8.58.62-.54,1.02-1.28,1.14-2.1,2.29-18.07,2.98-36.3,2.06-54.49-.92-19.18-9.54-53.39-16.09-77h52.95c1.9,0,3.45-1.54,3.45-3.45s-1.54-3.45-3.45-3.45H12.2c-1.68-5.9-3.13-10.82-4.11-14.1h72.54l-32.47,142.99c-.43,1.86.73,3.71,2.59,4.14,0,0,0,0,.01,0,.25.05.51.08.77.08,1.61,0,3.01-1.12,3.36-2.69L87.71,45.13h7.24c-4.85,16.21-20.86,71.49-22.11,98Z"/>
  </g>
</svg>