<?xml version="1.0" encoding="UTF-8"?>
<svg id="Livello_2" data-name="Livello 2" xmlns="http://www.w3.org/2000/svg" viewBox="0 0 117.46 214.81">
  <defs>
    <style>
      .cls-1 {
        fill: #fff;
      }
    </style>
  </defs>
  <g id="Livello_1-2" data-name="Livello 1">
    <path class="cls-1" d="M117.46,29.6c0-10.28-10.23-18.65-22.81-18.65-3.39,0-6.65.59-9.69,1.75-5.18-7.84-15.21-12.7-26.22-12.7s-21.04,4.86-26.22,12.7c-3.04-1.16-6.3-1.75-9.69-1.75-1.97,0-3.92.2-5.8.61-1.7.36-2.78,2.03-2.42,3.73s2.04,2.78,3.73,2.42c1.46-.31,2.97-.47,4.49-.47,2.67,0,5.23.47,7.59,1.39,2.66,1.04,5.72.05,7.28-2.35,4.01-6.16,12.07-9.99,21.05-9.99s17.04,3.83,21.05,9.99c1.56,2.4,4.62,3.39,7.28,2.35,2.36-.92,4.91-1.39,7.59-1.39,9.11,0,16.52,5.54,16.52,12.36,0,2.79-1.24,5.37-3.34,7.44-3.22,3.19-7.57,4.92-13.18,4.92-4.79,0-9.36-1.58-12.51-4.33-2.13-1.86-5.22-2.03-7.51-.42-4.35,3.06-10,4.75-15.9,4.75-2.12,0-4.22-.22-6.24-.65-1.79-.38-3.64.06-5.07,1.22-1.43,1.16-2.26,2.89-2.26,4.73v26.83c0,3.19-2.59,5.78-5.78,5.78s-5.78-2.59-5.78-5.78v-26.46c0-1.8-.79-3.49-2.16-4.64-1.38-1.16-3.19-1.65-4.97-1.35-1.19.21-2.42.31-3.65.31-5.81,0-9.88-1.65-13.18-4.92-2.09-2.07-3.34-4.65-3.34-7.44,0-1.97.61-3.86,1.83-5.62.99-1.43.63-3.39-.8-4.38s-3.39-.63-4.38.8c-1.92,2.79-2.94,5.97-2.94,9.2,0,4,1.56,7.71,4.19,10.76-5.97,21.01-5.48,43.03,1.44,63.79l14.57,43.74c4.66,13.99,4.52,29.34-.4,43.24l-5.02,14.2c-1.64,4.5,1.88,9.53,6.7,9.49h74.5c4.79.03,8.34-4.98,6.7-9.49l-5.02-14.21c-4.92-13.9-5.06-29.25-.4-43.24l4.47-13.43c.55-1.65-.34-3.43-1.99-3.98-1.65-.55-3.43.34-3.98,1.99l-4.47,13.43c-5.1,15.31-4.95,32.12.44,47.33l5.02,14.21c.19.59-.16,1.08-.77,1.09H21.48c-.62-.02-.96-.51-.77-1.1l5.02-14.2c5.38-15.21,5.54-32.02.44-47.33l-14.57-43.74c-3.5-10.51-5.25-21.37-5.25-32.23h20.95v4.18c0,6.66,5.42,12.07,12.07,12.07s12.07-5.42,12.07-12.07v-4.18h59.66c0,10.87-1.75,21.72-5.25,32.23l-5.4,16.21c-.55,1.65.34,3.43,1.99,3.98,1.61.54,3.43-.32,3.98-1.99l5.4-16.2c6.92-20.76,7.41-42.78,1.44-63.79,2.64-3.04,4.19-6.75,4.19-10.76h0ZM27.3,63.63H6.54c.4-6.33,1.39-12.65,2.99-18.88,3.74,2.2,8.33,3.5,13.28,3.5,1.51,0,3.02-.12,4.49-.36v15.74ZM51.45,63.63v-16.11c2.37.48,4.82.73,7.28.73,7.12,0,13.99-2.06,19.37-5.79,4.28,3.68,10.31,5.79,16.55,5.79,4.95,0,9.54-1.3,13.28-3.5,1.59,6.23,2.59,12.55,2.99,18.88h-59.47Z"/>
  </g>
</svg>