<?xml version="1.0" encoding="UTF-8"?>
<svg id="Livello_2" data-name="Livello 2" xmlns="http://www.w3.org/2000/svg" viewBox="0 0 207.58 208.52">
  <defs>
    <style>
      .cls-1 {
        fill: #fff;
      }
    </style>
  </defs>
  <g id="Livello_1-2" data-name="Livello 1">
    <path class="cls-1" d="M127.38,40.19c8.02-6.48,9.83-13.4,9.94-18.06.27-11.35-8.7-19.66-9.72-20.57-2.53-2.25-6.42-2.03-8.67.51-2.25,2.54-2.03,6.42.51,8.67.06.05,5.74,5.37,5.6,11.1-.07,3.05-1.83,5.93-5.38,8.8-8.02,6.48-9.83,13.4-9.94,18.06-.27,11.35,8.7,19.66,9.72,20.57,1.17,1.04,2.64,1.56,4.1,1.56,1.69,0,3.38-.69,4.59-2.05,2.25-2.54,2.04-6.41-.5-8.66-1.61-1.47-5.77-6.33-5.62-11.17.09-3.04,1.85-5.9,5.38-8.75Z"/>
    <path class="cls-1" d="M88.4,40.19c8.02-6.48,9.83-13.4,9.94-18.06.27-11.35-8.7-19.66-9.72-20.57-2.53-2.25-6.42-2.03-8.67.51-2.25,2.54-2.03,6.42.51,8.67.06.05,5.74,5.37,5.6,11.1-.07,3.05-1.83,5.93-5.38,8.8-8.02,6.48-9.83,13.4-9.94,18.06-.27,11.35,8.7,19.66,9.72,20.57,1.17,1.04,2.64,1.56,4.1,1.56,1.69,0,3.38-.69,4.59-2.05,2.25-2.54,2.04-6.41-.5-8.66-1.61-1.47-5.77-6.33-5.62-11.17.09-3.04,1.85-5.9,5.38-8.75Z"/>
    <path class="cls-1" d="M176.35,100.25h-7.27v-4.51c0-3.39-2.75-6.14-6.14-6.14H6.14c-3.39,0-6.14,2.75-6.14,6.14v32.42c0,28.65,15.86,53.84,39.66,68.07H6.15C2.75,196.24,0,198.99,0,202.38s2.75,6.14,6.14,6.14h156.79c3.39,0,6.14-2.75,6.14-6.14s-2.75-6.14-6.14-6.14h-33.52c13.54-8.09,24.5-19.73,31.45-33.53h15.49c17.22,0,31.23-14.01,31.23-31.23,0-17.22-14.01-31.23-31.23-31.23ZM156.79,128.17c0,37.53-32.41,68.07-72.25,68.07S12.29,165.7,12.29,128.17v-26.28h144.5v26.28h0ZM176.35,150.42h-10.57c2.15-7.07,3.3-14.54,3.3-22.25v-15.63h7.27c10.44,0,18.94,8.5,18.94,18.94s-8.5,18.94-18.94,18.94Z"/>
    <path class="cls-1" d="M49.42,40.19c8.02-6.48,9.83-13.4,9.94-18.06.27-11.35-8.7-19.66-9.72-20.57-2.53-2.25-6.42-2.03-8.67.51-2.25,2.53-2.03,6.42.51,8.67.06.05,5.74,5.37,5.6,11.1-.07,3.05-1.83,5.93-5.38,8.8-8.02,6.48-9.83,13.4-9.94,18.06-.27,11.35,8.7,19.66,9.72,20.57,1.17,1.04,2.63,1.55,4.08,1.55,1.69,0,3.38-.7,4.59-2.06,2.25-2.54,2.03-6.42-.51-8.67-.06-.05-5.74-5.37-5.6-11.1.07-3.05,1.83-5.93,5.38-8.8Z"/>
  </g>
</svg>