<?xml version="1.0" encoding="UTF-8"?>
<svg id="Livello_2" data-name="Livello 2" xmlns="http://www.w3.org/2000/svg" viewBox="0 0 201.86 201.89">
  <defs>
    <style>
      .cls-1 {
        fill: #fff;
      }
    </style>
  </defs>
  <g id="Livello_1-2" data-name="Livello 1">
    <path class="cls-1" d="M200.91,73.56c-1.95-9.26-6.9-15.91-14.4-19.47-2.05-12.21-7.3-27.99-18.77-32.77-7.23-8.8-22.09-23.83-33.13-20.96-12.96,3.37-14.11,28.86-13.35,42.26-4.93,5.86-8.88,13.19-7.31,20.69.02.08.03.15.05.22-5.95,4.33-10.21,9.96-10.85,17.29-12.2,2.73-20.16,11.54-23.11,22.4-7,.88-12.35,5.08-16.49,10.77-7.54-1.7-14.97,2.25-20.92,7.26-13.43-.76-38.89.4-42.26,13.35-2.88,11.06,12.2,25.93,20.96,33.13,4.78,11.47,20.56,16.71,32.76,18.76,7.75,16.5,28,17.26,45.85,13.59,1.6-.33,2.63-1.89,2.3-3.49-.33-1.6-1.89-2.63-3.49-2.3-16.73,3.44-35.71,2.84-40.56-13.63-5.69-19.32,1.28-66.22,20.7-71.23-2.49,24.35,16.53,57.47,32.88,73.82,1.97,1.97,4.07,3.62,6.28,4.95-2.35,1.07-4.89,2.06-7.61,2.96-1.55.52-2.39,2.19-1.87,3.74.41,1.24,1.57,2.02,2.81,2.02.31,0,.62-.05.93-.15,4.8-1.6,9.11-3.45,12.84-5.53,6.01,1.65,12.17,1.16,18.04-.63,22.97-7.01,55.01-40.26,48.09-65.51,7.26-13.07,12.91-36.09,9.64-51.58ZM20.04,158.76c-9.63-9-15.21-17.86-13.96-22.66,1.47-5.63,14.17-9.27,30.66-9.12-7.19,7.96-15.7,21.76-16.7,31.79ZM51.92,180.07c-24.81-5.21-26.85-15.89-25.85-21.79,2.26-13.37,20.2-39.01,34.05-38.77-9.2,17.29-11.79,44.97-8.2,60.56ZM136.1,6.08c4.8-1.25,13.66,4.33,22.66,13.96-10.11,1.01-23.85,9.53-31.79,16.7-.14-16.48,3.49-29.19,9.12-30.66ZM141.45,184.98c-9.97,3.04-18.55,1.06-25.5-5.9-19.53-19.53-44.2-65.38-23.36-86.22,19.05-19.05,67.99,4.56,86.5,23.07,23.05,23.05-15.36,62.24-37.64,69.04ZM188.22,118.04c-9.44-15.72-51.11-40.02-79.01-38.08,1.71-9.58,13.26-15.5,22.51-18.6,3.71-1.24,1.83-6.85-1.88-5.61-3.84,1.28-7.28,2.74-10.33,4.36-.22-13.82,25.37-31.77,38.77-34.04,5.9-1,16.57,1.04,21.79,25.85-9.76-2.24-24.23-2.05-37.79.59-3.84.75-2.71,6.55,1.13,5.81,13.57-2.64,28.55-2.69,37.26-.13,7.85,2.31,12.58,7.74,14.45,16.59,2.72,12.91-1.68,31.78-6.9,43.26Z"/>
  </g>
</svg>