<?xml version="1.0" encoding="UTF-8"?>
<svg id="Livello_2" data-name="Livello 2" xmlns="http://www.w3.org/2000/svg" viewBox="0 0 512 484.83">
  <defs>
    <style>
      .cls-1 {
        fill: #fff;
      }
    </style>
  </defs>
  <g id="Livello_1-2" data-name="Livello 1">
    <path class="cls-1" d="M454.98,29.47c-3.59-3.59-9.41-3.59-13,0l-95.33,95.33c-3.59,3.59-3.59,9.41,0,13,1.8,1.79,4.15,2.69,6.5,2.69s4.71-.9,6.5-2.69l95.33-95.33c3.59-3.59,3.59-9.41,0-13Z"/>
    <path class="cls-1" d="M480.9,54.98c-3.59-3.59-9.41-3.59-13,0l-95.33,95.33c-3.59,3.59-3.59,9.41,0,13,1.8,1.79,4.15,2.69,6.5,2.69s4.71-.9,6.5-2.69l95.33-95.33c3.59-3.59,3.59-9.41,0-13Z"/>
    <path class="cls-1" d="M390.97,215.96l118.34-118.34c3.59-3.59,3.59-9.41,0-13-3.59-3.59-9.41-3.59-13,0l-118.34,118.34c-14.58,14.58-36.87,18.4-55.47,9.52-3.7-1.77-8.12-.87-10.84,2.19l-40.21,45.3s-.03.03-.05.05c-.02.02-.03.04-.04.05l-173.79,195.8s-.09.1-.13.15c-.57.67-1.11,1.26-1.66,1.81-11.47,11.47-30.15,11.47-41.62,0-5.56-5.56-8.62-12.95-8.62-20.81s3.06-15.25,8.63-20.82c.53-.54,1.12-1.08,1.8-1.65.05-.04.1-.09.15-.13l108.65-96.43c3.8-3.37,4.14-9.18.77-12.98-3.37-3.8-9.18-4.15-12.98-.77l-108.58,96.37c-1.04.89-1.97,1.74-2.83,2.61-9.03,9.03-14.01,21.04-14.01,33.81s4.97,24.78,14,33.81c9.32,9.32,21.57,13.98,33.81,13.98,12.24,0,24.49-4.66,33.8-13.98.88-.88,1.74-1.81,2.62-2.84l132.43-149.21,132.43,149.21c.88,1.03,1.73,1.96,2.61,2.83,9.32,9.32,21.57,13.98,33.81,13.98s24.49-4.66,33.81-13.98c18.64-18.64,18.64-48.98,0-67.61-.88-.88-1.81-1.74-2.84-2.61l-152.39-135.26,29.82-33.59c24.16,8.56,51.49,2.6,69.9-15.8ZM431.51,414.43s.1.09.15.13c.67.57,1.26,1.11,1.81,1.66,11.47,11.47,11.47,30.14,0,41.61-11.48,11.47-30.14,11.47-41.62,0-.54-.54-1.09-1.14-1.66-1.81-.04-.05-.09-.1-.13-.15l-133.96-150.92,22.94-25.85,152.46,135.32Z"/>
    <path class="cls-1" d="M427.38,2.69c-3.59-3.59-9.41-3.59-13,0l-118.34,118.34c-18.41,18.4-24.37,45.74-15.81,69.9l-36.42,32.32-35-31.06c18.1-35.61,11.49-78.85-17.22-107.57-28.52-28.52-61.55-48.59-93.01-56.51-32.84-8.27-61-2.75-79.29,15.55C1,61.95-4.52,90.11,3.75,122.95c7.92,31.46,27.99,64.49,56.51,93.01,28.71,28.72,71.95,35.32,107.57,17.22,0,0,34.23,38.56,34.66,39.05,1.82,2.05,4.34,3.09,6.88,3.09,2.17,0,4.35-.76,6.1-2.32l81.87-72.66c3.07-2.72,3.96-7.14,2.19-10.84-8.88-18.6-5.06-40.89,9.52-55.47L427.38,15.69c3.59-3.59,3.59-9.41,0-13ZM210.13,253.15l-33.47-37.71c-2.96-3.34-7.9-4.07-11.7-1.72-29.48,18.18-67.19,13.75-91.7-10.76-26.2-26.2-44.56-56.21-51.68-84.5-6.62-26.32-2.82-48.27,10.72-61.8,13.54-13.54,35.49-17.34,61.8-10.72,28.29,7.12,58.3,25.47,84.5,51.68,24.52,24.51,28.94,62.22,10.76,91.7-2.34,3.8-1.62,8.74,1.72,11.7l38.89,34.52-19.83,17.61Z"/>
  </g>
</svg>