<?xml version="1.0" encoding="UTF-8"?>
<svg id="Livello_2" data-name="Livello 2" xmlns="http://www.w3.org/2000/svg" viewBox="0 0 122.78 214.81">
  <defs>
    <style>
      .cls-1 {
        fill: #fff;
      }
    </style>
  </defs>
  <g id="Livello_1-2" data-name="Livello 1">
    <path class="cls-1" d="M107.32,99.01c11.4-11.84,16.79-25.85,15.17-39.44-.74-6.22-4.55-20.07-9.26-33.69-2.37-6.83-4.65-12.67-6.6-16.89-3.07-6.64-5.12-8.99-7.81-8.99H23.96c-2.69,0-4.74,2.35-7.81,8.99-1.95,4.22-4.24,10.06-6.6,16.89C4.83,39.49,1.03,53.34.28,59.57c-3.39,28.5,24.12,54.59,51.78,60.01.36,4.93.68,18.74.49,35.19-.3,26.48-1.63,36.1-2.36,37.59-1.08,1.91-7.54,4.5-17.38,5.54l-.27.03c-5.26.55-15.05,1.59-15.05,9.39,0,3.72,1.75,5.52,3.22,6.37,1.72,1,3.79,1.14,5.76,1.14.51,0,1.04,0,1.6-.02.55-.01,1.11-.02,1.69-.02h63.26c.58,0,1.14.01,1.69.02.55.01,1.08.02,1.6.02,2.22,0,8.98,0,8.98-7.5s-9.79-8.84-15.05-9.39l-.28-.03c-9.84-1.04-16.29-3.63-17.36-5.51-.74-1.53-2.03-11.17-2.11-37.58-.06-16.96.43-30.7.88-35.44,13-2.84,26.3-10.34,35.95-20.36ZM64.03,154.15c.06,24.13,1.05,38.06,2.94,41.39,3.37,5.94,15.43,8.04,22.31,8.77l.28.03c2.77.29,9.27.98,9.27,2.98,0,.46-.05.71-.09.82-.22.09-.82.23-2.44.23-.47,0-.97,0-1.48-.02-.58-.01-1.19-.02-1.81-.02H29.76c-.62,0-1.22.01-1.81.02-.51.01-1,.02-1.48.02-1.62,0-2.22-.14-2.44-.23-.03-.11-.09-.36-.09-.82,0-2,6.5-2.68,9.27-2.97l.28-.03c6.89-.73,18.94-2.83,22.31-8.77.7-1.23,2.83-4.99,3.21-41.53.09-8.65.04-17.76-.12-24.99-.28-11.96-.69-12.81-1.05-13.56-.48-1-1.41-1.69-2.48-1.85-12.46-1.91-25.56-8.89-35.04-18.67-10.2-10.52-15.04-22.81-13.63-34.6,1.43-12.03,13.89-48.74,18.16-53.88h73.07c4.28,5.14,16.73,41.85,18.16,53.88,2.97,24.96-22.9,48.63-48.01,53.11-1.08.19-1.97.89-2.45,1.92-1.66,3.53-1.59,37.35-1.59,38.79Z"/>
  </g>
</svg>